<svg width="149" height="47" viewBox="0 0 149 47" fill="none" xmlns="http://www.w3.org/2000/svg">
<mask id="path-1-inside-1_1_1030" fill="white">
<path d="M9.84373 19.9351C9.45321 19.5446 9.45321 18.9114 9.84373 18.5209L11.7315 16.6332C14.0746 14.29 17.8736 14.29 20.2167 16.6332L22.1045 18.5209C22.495 18.9114 22.495 19.5446 22.1045 19.9351L20.2167 21.8229C17.8736 24.166 14.0746 24.166 11.7315 21.8229L9.84373 19.9351Z"/>
</mask>
<path d="M9.84373 19.9351C9.45321 19.5446 9.45321 18.9114 9.84373 18.5209L11.7315 16.6332C14.0746 14.29 17.8736 14.29 20.2167 16.6332L22.1045 18.5209C22.495 18.9114 22.495 19.5446 22.1045 19.9351L20.2167 21.8229C17.8736 24.166 14.0746 24.166 11.7315 21.8229L9.84373 19.9351Z" stroke="#3A3845" stroke-width="5" mask="url(#path-1-inside-1_1_1030)"/>
<mask id="path-2-inside-2_1_1030" fill="white">
<path d="M25.9319 19.9351C25.5414 19.5446 25.5414 18.9114 25.9319 18.5209L27.8196 16.6332C30.1628 14.29 33.9618 14.29 36.3049 16.6332L38.1926 18.5209C38.5832 18.9114 38.5832 19.5446 38.1926 19.9351L36.3049 21.8229C33.9618 24.166 30.1628 24.166 27.8196 21.8229L25.9319 19.9351Z"/>
</mask>
<path d="M25.9319 19.9351C25.5414 19.5446 25.5414 18.9114 25.9319 18.5209L27.8196 16.6332C30.1628 14.29 33.9618 14.29 36.3049 16.6332L38.1926 18.5209C38.5832 18.9114 38.5832 19.5446 38.1926 19.9351L36.3049 21.8229C33.9618 24.166 30.1628 24.166 27.8196 21.8229L25.9319 19.9351Z" stroke="#3A3845" stroke-width="5" mask="url(#path-2-inside-2_1_1030)"/>
<mask id="path-3-inside-3_1_1030" fill="white">
<path d="M23.3111 5.05354C23.7016 4.66302 24.3348 4.66302 24.7253 5.05354L26.613 6.94127C28.9562 9.28441 28.9562 13.0834 26.613 15.4266L24.7253 17.3143C24.3348 17.7048 23.7016 17.7048 23.3111 17.3143L21.4234 15.4266C19.0802 13.0834 19.0802 9.28441 21.4234 6.94127L23.3111 5.05354Z"/>
</mask>
<path d="M23.3111 5.05354C23.7016 4.66302 24.3348 4.66302 24.7253 5.05354L26.613 6.94127C28.9562 9.28441 28.9562 13.0834 26.613 15.4266L24.7253 17.3143C24.3348 17.7048 23.7016 17.7048 23.3111 17.3143L21.4234 15.4266C19.0802 13.0834 19.0802 9.28441 21.4234 6.94127L23.3111 5.05354Z" stroke="#3A3845" stroke-width="5" mask="url(#path-3-inside-3_1_1030)"/>
<mask id="path-4-inside-4_1_1030" fill="white">
<path d="M23.2054 20.3426C23.5959 19.9521 24.2291 19.9521 24.6196 20.3426L26.5073 22.2303C28.8505 24.5735 28.8505 28.3725 26.5073 30.7156L24.6196 32.6033C24.2291 32.9939 23.5959 32.9939 23.2054 32.6033L21.3176 30.7156C18.9745 28.3725 18.9745 24.5735 21.3176 22.2303L23.2054 20.3426Z"/>
</mask>
<path d="M23.2054 20.3426C23.5959 19.9521 24.2291 19.9521 24.6196 20.3426L26.5073 22.2303C28.8505 24.5735 28.8505 28.3725 26.5073 30.7156L24.6196 32.6033C24.2291 32.9939 23.5959 32.9939 23.2054 32.6033L21.3176 30.7156C18.9745 28.3725 18.9745 24.5735 21.3176 22.2303L23.2054 20.3426Z" stroke="#3A3845" stroke-width="5" mask="url(#path-4-inside-4_1_1030)"/>
<g filter="url(#filter0_d_1_1030)">
<path d="M27.75 1.29785C28.8356 1.20771 29.7219 1.22654 30.5273 1.5127C31.0049 1.68235 31.3852 2.07688 31.9238 2.81738C32.3914 3.46029 33.0508 4.49559 34.0088 5.1709C35.051 5.90557 36.4546 6.40502 37.4277 6.81836C38.5624 7.30033 39.1618 7.67761 39.4062 8.08594C39.7581 8.67358 39.9434 9.41776 40.1162 10.4258C40.2784 11.3714 40.4328 12.5849 40.79 13.7646C41.1129 14.8308 41.7983 15.9554 42.2471 16.8018C42.7538 17.7576 43.0526 18.4992 43.0527 19.1631C43.0527 19.7842 42.7878 20.3518 42.2959 21.1279C41.8568 21.8207 41.1304 22.8096 40.79 23.9336C40.419 25.1589 40.3515 26.5641 40.2344 27.5889C40.1051 28.7195 39.915 29.5369 39.4697 30.1465C39.0282 30.751 38.3051 31.1861 37.2715 31.6602C36.338 32.0882 35.0325 32.5879 34.0088 33.3096C33.0673 33.9733 32.4119 34.9495 31.9434 35.5605C31.4143 36.2506 31.0289 36.6363 30.5273 36.8145C29.7219 37.1006 28.8356 37.1194 27.75 37.0293C26.7494 36.9462 25.4061 36.7422 24.1514 36.7422C22.8967 36.7422 21.5533 36.9462 20.5527 37.0293C19.4671 37.1194 18.5809 37.1006 17.7754 36.8145C17.0442 36.5547 16.4454 36.0908 15.7764 35.4551C15.1596 34.869 14.365 34.004 13.4785 33.334C12.6119 32.6791 11.53 32.133 10.748 31.6777C9.89128 31.1789 9.2528 30.7212 8.83301 30.1465C8.3503 29.4857 8.08122 28.6086 7.85938 27.4883C7.65676 26.4651 7.4773 25.0906 7.12695 23.9336C6.80719 22.8776 6.226 21.9181 5.87012 21.2256C5.48359 20.4734 5.25 19.8619 5.25 19.1631C5.25014 18.4992 5.5489 17.7576 6.05566 16.8018C6.50441 15.9554 7.1898 14.8308 7.5127 13.7646C7.87951 12.5532 7.95041 11.3141 8.06543 10.4453C8.18834 9.51705 8.36649 8.81933 8.83301 8.18066C9.23894 7.62496 9.85618 7.20776 10.7129 6.74609C11.4931 6.32569 12.5898 5.81808 13.4785 5.14648C14.3844 4.46181 15.1798 3.5485 15.8008 2.9248C16.4777 2.24504 17.0676 1.76415 17.7754 1.5127C18.5809 1.22655 19.4671 1.20771 20.5527 1.29785C21.5533 1.38093 22.8967 1.58496 24.1514 1.58496C25.4061 1.58496 26.7494 1.38093 27.75 1.29785Z" stroke="#3A3845" stroke-width="2.5" shape-rendering="crispEdges"/>
</g>
<path d="M76.2271 8.90356C76.3449 8.90356 76.458 8.95955 76.5417 9.05934C76.6254 9.15914 76.673 9.29467 76.6741 9.43644V28.7167C76.6741 28.8585 76.6275 28.9945 76.5446 29.0952C76.4616 29.1959 76.349 29.2532 76.2311 29.2544H74.0486C73.9308 29.2532 73.8181 29.1959 73.7352 29.0952C73.6522 28.9945 73.6057 28.8585 73.6057 28.7167V16.1748C73.4339 16.3428 73.2567 16.5043 73.0741 16.6593C72.5547 17.0953 72.0272 17.4634 71.5158 17.8219C71.0044 18.1804 70.6661 18.4614 70.2635 18.7472C69.5096 19.271 68.8532 19.9756 68.3351 20.8172C67.8169 21.6589 67.4481 22.6196 67.2514 23.6399C67.2294 23.7586 67.1742 23.8647 67.0951 23.9405C67.016 24.0163 66.9177 24.0572 66.8165 24.0565H64.7347C64.6336 24.0572 64.5353 24.0163 64.4562 23.9405C64.3771 23.8647 64.3219 23.7586 64.2998 23.6399C64.1032 22.6184 63.734 21.6564 63.2151 20.8138C62.6962 19.9713 62.0388 19.2662 61.2838 18.7423C60.8811 18.4565 60.4784 18.1416 60.0315 17.8171C59.5845 17.4925 58.9925 17.0904 58.4731 16.6544C58.2905 16.5026 58.1134 16.3412 57.9416 16.17V28.7167C57.9416 28.8585 57.895 28.9945 57.8121 29.0952C57.7291 29.1959 57.6165 29.2532 57.4986 29.2544H55.3201C55.2023 29.2532 55.0896 29.1959 55.0067 29.0952C54.9237 28.9945 54.8772 28.8585 54.8772 28.7167V9.44128C54.8772 9.29867 54.9243 9.1619 55.0081 9.06106C55.0919 8.96022 55.2056 8.90356 55.3242 8.90356H57.4785C57.5834 8.90531 57.6845 8.9514 57.764 9.03376C57.8435 9.11613 57.8964 9.22952 57.9134 9.35408C58.0342 10.2939 58.4932 12.4883 60.1724 13.7139C60.6153 14.0288 61.0542 14.3825 61.5375 14.7264C62.0207 15.0704 62.4918 15.3852 62.9509 15.7728C63.8883 16.5225 64.7271 17.4369 65.4394 18.4856C65.4797 18.5471 65.5311 18.5968 65.5897 18.6309C65.6483 18.6651 65.7125 18.6828 65.7776 18.6828C65.8427 18.6828 65.907 18.6651 65.9656 18.6309C66.0242 18.5968 66.0756 18.5471 66.1159 18.4856C66.8267 17.4356 67.6641 16.5195 68.6004 15.7679C69.0796 15.3804 69.5789 15.0316 70.0178 14.7216C70.4567 14.4115 70.948 14.0288 71.3789 13.7139C73.0621 12.5077 73.5211 10.3229 73.6419 9.35408C73.6589 9.22952 73.7118 9.11613 73.7913 9.03376C73.8708 8.9514 73.9719 8.90531 74.0768 8.90356H76.2271Z" fill="#3A3845"/>
<path d="M99.4617 19.079C99.4617 24.6852 95.0188 29.2544 89.554 29.2544C84.0893 29.2544 79.6464 24.69 79.6464 19.079C79.6464 13.468 84.0893 8.90356 89.554 8.90356C95.0188 8.90356 99.4617 13.468 99.4617 19.079ZM89.554 12.6006C85.81 12.6006 82.765 15.5079 82.765 19.079C82.765 22.6501 85.81 25.5331 89.554 25.5331C93.298 25.5331 96.3471 22.6259 96.3471 19.0596C96.3471 15.4934 93.298 12.6006 89.554 12.6006Z" fill="#3A3845"/>
<path d="M122.249 19.079C122.249 24.6852 117.584 29.2544 111.846 29.2544C106.108 29.2544 101.443 24.69 101.443 19.079C101.443 13.468 106.108 8.90356 111.846 8.90356C117.584 8.90356 122.249 13.468 122.249 19.079ZM111.846 12.6006C107.915 12.6006 104.714 15.5079 104.714 19.079C104.714 22.6501 107.915 25.5331 111.846 25.5331C115.777 25.5331 118.975 22.6259 118.975 19.0596C118.975 15.4934 115.765 12.6006 111.846 12.6006Z" fill="#3A3845"/>
<path d="M139.979 18.9288V9.43656C139.979 9.36657 139.99 9.29726 140.013 9.23259C140.035 9.16793 140.068 9.10917 140.109 9.05968C140.15 9.01018 140.199 8.97092 140.253 8.94414C140.307 8.91735 140.365 8.90356 140.423 8.90356H142.611C142.67 8.90356 142.727 8.91735 142.781 8.94414C142.835 8.97092 142.884 9.01018 142.925 9.05968C142.967 9.10917 142.999 9.16793 143.022 9.23259C143.044 9.29726 143.055 9.36657 143.055 9.43656V28.7214C143.055 28.7914 143.044 28.8607 143.022 28.9254C142.999 28.9901 142.967 29.0488 142.925 29.0983C142.884 29.1478 142.835 29.1871 142.781 29.2139C142.727 29.2407 142.67 29.2544 142.611 29.2544H140.443C140.385 29.2544 140.327 29.2407 140.273 29.2139C140.219 29.1871 140.17 29.1478 140.129 29.0983C140.088 29.0488 140.055 28.9901 140.033 28.9254C140.01 28.8607 139.999 28.7914 139.999 28.7214V27.2048C140.001 26.7301 139.913 26.261 139.741 25.8336C139.099 24.2733 137.439 21.3854 133.563 19.6168C131.926 18.8907 130.392 17.8641 129.017 16.5739C128.952 16.5102 128.873 16.47 128.79 16.4582C128.707 16.4464 128.622 16.4634 128.547 16.5072C128.471 16.5509 128.408 16.6197 128.364 16.7054C128.32 16.791 128.297 16.89 128.298 16.9906V28.7214C128.298 28.8628 128.251 28.9984 128.168 29.0983C128.085 29.1983 127.972 29.2544 127.854 29.2544H125.666C125.548 29.2544 125.435 29.1983 125.352 29.0983C125.268 28.9984 125.222 28.8628 125.222 28.7214V9.43656C125.222 9.2952 125.268 9.15963 125.352 9.05968C125.435 8.95972 125.548 8.90356 125.666 8.90356H127.794C127.882 8.90567 127.968 8.93961 128.04 9.00097C128.112 9.06232 128.167 9.14825 128.197 9.24759C128.549 10.3911 130.01 14.093 134.633 16.1572C136.306 16.8914 137.862 17.9649 139.232 19.331C139.296 19.3978 139.375 19.441 139.459 19.4556C139.544 19.4701 139.629 19.4553 139.707 19.413C139.784 19.3706 139.85 19.3024 139.896 19.2166C139.942 19.1308 139.967 19.0309 139.967 18.9288H139.979Z" fill="#3A3845"/>
<path d="M146.028 27.2194C146.028 26.8167 146.115 26.423 146.278 26.0883C146.442 25.7535 146.674 25.4926 146.946 25.3388C147.218 25.1849 147.517 25.1449 147.805 25.2238C148.093 25.3027 148.358 25.497 148.566 25.7822C148.774 26.0673 148.915 26.4303 148.972 26.8254C149.029 27.2205 148.999 27.6299 148.886 28.0017C148.773 28.3734 148.582 28.6909 148.337 28.9139C148.092 29.137 147.804 29.2555 147.51 29.2545C147.315 29.2545 147.122 29.2018 146.942 29.0995C146.762 28.9972 146.598 28.8472 146.461 28.6581C146.323 28.4691 146.214 28.2447 146.14 27.9978C146.065 27.7509 146.027 27.4864 146.028 27.2194Z" fill="#3A3845"/>
<defs>
<filter id="filter0_d_1_1030" x="0" y="0" width="48.3027" height="46.3271" filterUnits="userSpaceOnUse" color-interpolation-filters="sRGB">
<feFlood flood-opacity="0" result="BackgroundImageFix"/>
<feColorMatrix in="SourceAlpha" type="matrix" values="0 0 0 0 0 0 0 0 0 0 0 0 0 0 0 0 0 0 127 0" result="hardAlpha"/>
<feOffset dy="4"/>
<feGaussianBlur stdDeviation="2"/>
<feComposite in2="hardAlpha" operator="out"/>
<feColorMatrix type="matrix" values="0 0 0 0 0 0 0 0 0 0 0 0 0 0 0 0 0 0 0.25 0"/>
<feBlend mode="normal" in2="BackgroundImageFix" result="effect1_dropShadow_1_1030"/>
<feBlend mode="normal" in="SourceGraphic" in2="effect1_dropShadow_1_1030" result="shape"/>
</filter>
</defs>
</svg>
