<svg width="19" height="19" viewBox="0 0 19 19" fill="none" xmlns="http://www.w3.org/2000/svg">
<path d="M4.29101 4.29098H17.8649L15.9324 12.5038C15.6815 13.5701 14.73 14.3238 13.6346 14.3238H8.7639C7.69274 14.3238 6.75587 13.6026 6.48179 12.5672L4.29101 4.29098ZM4.29101 4.29098L3.40576 0.75H0.75" stroke="#595667" stroke-width="1.5" stroke-linecap="round" stroke-linejoin="round"/>
<path d="M6.94773 18.7501C7.59961 18.7501 8.12807 18.2216 8.12807 17.5697C8.12807 16.9179 7.59961 16.3894 6.94773 16.3894C6.29585 16.3894 5.7674 16.9179 5.7674 17.5697C5.7674 18.2216 6.29585 18.7501 6.94773 18.7501Z" fill="#595667"/>
<path d="M15.2108 18.7501C15.8627 18.7501 16.3911 18.2216 16.3911 17.5697C16.3911 16.9179 15.8627 16.3894 15.2108 16.3894C14.5589 16.3894 14.0305 16.9179 14.0305 17.5697C14.0305 18.2216 14.5589 18.7501 15.2108 18.7501Z" fill="#595667"/>
</svg>
